{"title":"The Man With The Iron Fists [2012] UNRATED BRRip x264 AAC-V3nom","uid":8091320,"size":317238450,"categoryP":"video","categoryS":"movies","magnet":"?xt=urn:btih:3165b1fa4eb619f47cac88ff0c1eaa394922171d&amp;dn=The+Man+With+The+Iron+Fists+%5B2012%5D+UNRATED+BRRip+x264+AAC-V3nom&amp;tr=udp%3A%2F%2Ftracker.openbittorrent.com%3A80&amp;tr=udp%3A%2F%2Fopen.demonii.com%3A1337&amp;tr=udp%3A%2F%2Ftracker.coppersurfer.tk%3A6969&amp;tr=udp%3A%2F%2Fexodus.desync.com%3A6969","seeders":1,"leechers":0,"uploader":"V3nom","files":-1,"time":1359729548,"description":"[img]http://img585.imageshack.us/img585/3453/themanwiththeironfists.jpg[/img]\n\n[b][size=200][color=black]PLOT[/color][/size][/b]\n\n[code]On the hunt for a fabled treasure of gold, a band of warriors, \nassassins, and a rogue British soldier descend upon a village in feudal \nChina, where a humble blacksmith looks to defend himself and his fellow \nvillagers.[/code]\n\n[b][size=200][color=black]IMDB[/color][/size][/b]\n\n[code]http://www.imdb.com/title/tt1258972/[/code]\n\n[b][size=200][color=black]MOVIE INFO[/color][/size][/b]\n\n[code]The Man With The Iron Fists 2012 UNRATED BRRip x264 AAC-V3nom\n\nFormat                                   : MPEG-4\nFormat profile                           : Base Media / Version 2\nCodec ID                                 : mp42\nFile size                                : 299 MiB\nDuration                                 : 1h 47mn\nOverall bit rate mode                    : Variable\nOverall bit rate                         : 390 Kbps\nEncoded date                             : UTC 2013-02-01 12:10:53\nTagged date                              : UTC 2013-02-01 12:38:44\n\nVideo\nID                                       : 1\nFormat                                   : AVC\nFormat/Info                              : Advanced Video Codec\nFormat profile                           : &lt;a class=&quot;__cf_email__&quot; href=&quot;/cdn-cgi/l/email-protection&quot; data-cfemail=&quot;a7eac6cec9e7eb958996&quot;&gt;[email&amp;#160;protected]&lt;/a&gt;&lt;script cf-hash='f9e31' type=&quot;text/javascript&quot;&gt;\n/* &lt;![CDATA[ */!function(){try{var t=&quot;currentScript&quot;in document?document.currentScript:function(){for(var t=document.getElementsByTagName(&quot;script&quot;),e=t.length;e--;)if(t[e].getAttribute(&quot;cf-hash&quot;))return t[e]}();if(t&amp;&amp;t.previousSibling){var e,r,n,i,c=t.previousSibling,a=c.getAttribute(&quot;data-cfemail&quot;);if(a){for(e=&quot;&quot;,r=parseInt(a.substr(0,2),16),n=2;a.length-n;n+=2)i=parseInt(a.substr(n,2),16)^r,e+=String.fromCharCode(i);e=document.createTextNode(e),c.parentNode.replaceChild(e,c)}}}catch(u){}}();/* ]]&gt; */&lt;/script&gt;\nFormat settings, CABAC                   : Yes\nFormat settings, ReFrames                : 4 frames\nCodec ID                                 : avc1\nCodec ID/Info                            : Advanced Video Coding\nDuration                                 : 1h 47mn\nBit rate mode                            : Variable\nBit rate                                 : 290 Kbps\nWidth                                    : 608 pixels\nHeight                                   : 256 pixels\nDisplay aspect ratio                     : 2.40:1\nFrame rate mode                          : Variable\nFrame rate                               : 23.976 fps\nMinimum frame rate                       : 23.974 fps\nMaximum frame rate                       : 90 000.000 fps\nColor space                              : YUV\nChroma subsampling                       : 4:2:0\nBit depth                                : 8 bits\nScan type                                : Progressive\nBits/(Pixel*Frame)                       : 0.078\nStream size                              : 222 MiB (74%)\nWriting library                          : x264 core 112\n\nAudio\nID                                       : 2\nFormat                                   : AAC\nFormat/Info                              : Advanced Audio Codec\nFormat profile                           : LC\nCodec ID                                 : 40\nDuration                                 : 1h 47mn\nBit rate mode                            : Variable\nBit rate                                 : 96.0 Kbps\nMaximum bit rate                         : 127 Kbps\nChannel(s)                               : 2 channels\nChannel positions                        : Front: L R\nSampling rate                            : 48.0 KHz\nCompression mode                         : Lossy\nDelay relative to video                  : 83ms\nStream size                              : 73.5 MiB (25%)\nEncoded date                             : UTC 2013-02-01 12:10:53\nTagged date                              : UTC 2013-02-01 12:38:39[/code]\n\n[b][size=200][color=black]SOURCE[/color][/size][/b]\n\n[code]The Man with the Iron Fists 2012 UNRATED BDRip XviD-AMIABLE(Thanks)[/code]\n\n[b][size=200][color=black]SCREENSHOTS[/color][/size][/b]\n\n[img]http://img201.imageshack.us/img201/7005/themanwiththeironfists2t.jpg[/img]\n\n[img]http://kastatic.com/i2/users/133df62bbf28e62494bb17fe11078f1a.gif[/img][img]http://kastatic.com/i2/users/133df62bbf28e62494bb17fe11078f1a.gif[/img]","torrent":{"xt":"urn:btih:3165b1fa4eb619f47cac88ff0c1eaa394922171d","amp;dn":"The+Man+With+The+Iron+Fists+%5B2012%5D+UNRATED+BRRip+x264+AAC-V3nom","amp;tr":["udp%3A%2F%2Ftracker.openbittorrent.com%3A80","udp%3A%2F%2Fopen.demonii.com%3A1337","udp%3A%2F%2Ftracker.coppersurfer.tk%3A6969","udp%3A%2F%2Fexodus.desync.com%3A6969"],"infoHash":"3165b1fa4eb619f47cac88ff0c1eaa394922171d","infoHashBuffer":{"type":"Buffer","data":[49,101,177,250,78,182,25,244,124,172,136,255,12,30,170,57,73,34,23,29]},"announce":[],"urlList":[]}}